<?xml version="1.0" standalone="no"?>
<!DOCTYPE svg PUBLIC "-//W3C//DTD SVG 20010904//EN"
 "http://www.w3.org/TR/2001/REC-SVG-20010904/DTD/svg10.dtd">
<svg version="1.0" xmlns="http://www.w3.org/2000/svg"
 width="26.000000pt" height="21.000000pt" viewBox="0 0 26.000000 21.000000"
 preserveAspectRatio="xMidYMid meet">

<g transform="translate(0.000000,21.000000) scale(0.100000,-0.100000)"
fill="#000000" stroke="none">
<path d="M120 146 c0 -25 -4 -47 -8 -50 -4 -2 -18 11 -31 30 -29 43 -36 39
-16 -9 20 -49 20 -49 -22 -32 -46 20 -53 13 -14 -15 35 -25 40 -40 12 -40 -11
0 -23 -4 -26 -10 -3 -5 0 -10 7 -10 7 0 23 -3 36 -6 19 -5 22 -2 22 19 0 57
86 62 97 6 5 -25 10 -30 27 -25 12 3 27 6 34 6 7 0 10 4 7 10 -3 5 -15 10 -26
10 -26 0 -24 15 6 38 35 28 31 34 -10 16 -19 -8 -35 -13 -35 -10 0 2 7 23 15
47 l15 43 -34 -40 -35 -39 -1 47 c0 26 -4 50 -10 53 -6 4 -10 -11 -10 -39z"/>
</g>
</svg>
