<?xml version="1.0" standalone="no"?>
<!DOCTYPE svg PUBLIC "-//W3C//DTD SVG 20010904//EN"
 "http://www.w3.org/TR/2001/REC-SVG-20010904/DTD/svg10.dtd">
<svg version="1.0" xmlns="http://www.w3.org/2000/svg"
 width="15.000000pt" height="21.000000pt" viewBox="0 0 15.000000 21.000000"
 preserveAspectRatio="xMidYMid meet">

<g transform="translate(0.000000,21.000000) scale(0.100000,-0.100000)"
fill="#000000" stroke="none">
<path d="M42 190 c-7 -12 -10 -25 -7 -31 4 -5 -3 -24 -14 -43 -12 -18 -21 -37
-21 -41 0 -4 23 -4 50 0 27 4 50 4 50 0 0 -4 -10 -24 -21 -44 l-22 -36 43 41
c36 36 41 44 31 62 -9 17 -16 19 -41 12 -40 -11 -38 -2 10 45 22 21 40 43 40
47 0 4 -19 8 -43 8 -32 0 -45 -5 -55 -20z"/>
</g>
</svg>
