<?xml version="1.0" standalone="no"?>
<!DOCTYPE svg PUBLIC "-//W3C//DTD SVG 20010904//EN"
 "http://www.w3.org/TR/2001/REC-SVG-20010904/DTD/svg10.dtd">
<svg version="1.0" xmlns="http://www.w3.org/2000/svg"
 width="26.000000pt" height="21.000000pt" viewBox="0 0 26.000000 21.000000"
 preserveAspectRatio="xMidYMid meet">

<g transform="translate(0.000000,21.000000) scale(0.100000,-0.100000)"
fill="#000000" stroke="none">
<path d="M66 162 c-9 -26 -28 -64 -42 -85 -14 -21 -22 -42 -19 -47 16 -27 140
-38 207 -20 49 14 53 22 26 63 -13 19 -28 43 -34 53 -11 18 -12 18 -32 1 -20
-18 -21 -18 -35 5 -9 12 -21 35 -28 51 -7 15 -16 27 -20 27 -4 0 -15 -21 -23
-48z"/>
</g>
</svg>
