<?xml version="1.0" encoding="UTF-8"?>
<!DOCTYPE svg PUBLIC "-//W3C//DTD SVG 1.1//EN" "http://www.w3.org/Graphics/SVG/1.1/DTD/svg11.dtd">
<svg xmlns="http://www.w3.org/2000/svg" version="1.1" width="28px" height="21px" style="shape-rendering:geometricPrecision; text-rendering:geometricPrecision; image-rendering:optimizeQuality; fill-rule:evenodd; clip-rule:evenodd" xmlns:xlink="http://www.w3.org/1999/xlink">
<g><path style="opacity:1" fill="#f9f8f9" d="M -0.5,-0.5 C 5.5,-0.5 11.5,-0.5 17.5,-0.5C 14.8333,0.166667 12.1667,0.833333 9.5,1.5C 4.71392,2.61926 2.04725,5.61926 1.5,10.5C 0.217975,11.7082 0.217975,13.0416 1.5,14.5C 2.10667,14.3764 2.44001,14.0431 2.5,13.5C 2.55688,12.391 2.89022,11.391 3.5,10.5C 5.17649,11.1834 5.84316,12.5168 5.5,14.5C 4.89022,15.391 4.55688,16.391 4.5,17.5C 3.95691,17.56 3.62358,17.8933 3.5,18.5C 4.94916,19.1719 6.2825,19.8386 7.5,20.5C 4.83333,20.5 2.16667,20.5 -0.5,20.5C -0.5,13.5 -0.5,6.5 -0.5,-0.5 Z"/></g>
<g><path style="opacity:1" fill="#eae9ea" d="M 17.5,-0.5 C 20.8333,-0.5 24.1667,-0.5 27.5,-0.5C 27.5,6.5 27.5,13.5 27.5,20.5C 25.5,20.5 23.5,20.5 21.5,20.5C 22.2778,19.8444 22.9444,19.0111 23.5,18C 23.4301,17.2352 23.0967,16.7352 22.5,16.5C 21.2063,14.704 20.2063,12.704 19.5,10.5C 16.8026,12.0454 14.8026,11.3787 13.5,8.5C 12.1974,11.3787 10.1974,12.0454 7.5,10.5C 6.82811,11.9492 6.16145,13.2825 5.5,14.5C 5.84316,12.5168 5.17649,11.1834 3.5,10.5C 8.83461,4.69228 14.8346,4.02562 21.5,8.5C 23.2083,10.216 24.5416,12.216 25.5,14.5C 26.8722,11.026 26.2056,8.02599 23.5,5.5C 22.2511,3.8639 20.5844,2.69724 18.5,2C 15.5184,1.50204 12.5184,1.33537 9.5,1.5C 12.1667,0.833333 14.8333,0.166667 17.5,-0.5 Z"/></g>
<g><path style="opacity:1" fill="#222021" d="M 9.5,1.5 C 12.5184,1.33537 15.5184,1.50204 18.5,2C 20.5844,2.69724 22.2511,3.8639 23.5,5.5C 23.2178,6.77765 22.5511,7.77765 21.5,8.5C 14.8346,4.02562 8.83461,4.69228 3.5,10.5C 2.89022,11.391 2.55688,12.391 2.5,13.5C 1.59603,12.791 1.26269,11.791 1.5,10.5C 2.04725,5.61926 4.71392,2.61926 9.5,1.5 Z"/></g>
<g><path style="opacity:1" fill="#413f40" d="M 23.5,5.5 C 26.2056,8.02599 26.8722,11.026 25.5,14.5C 24.5416,12.216 23.2083,10.216 21.5,8.5C 22.5511,7.77765 23.2178,6.77765 23.5,5.5 Z"/></g>
<g><path style="opacity:1" fill="#8e8c8d" d="M 1.5,10.5 C 1.26269,11.791 1.59603,12.791 2.5,13.5C 2.44001,14.0431 2.10667,14.3764 1.5,14.5C 0.217975,13.0416 0.217975,11.7082 1.5,10.5 Z"/></g>
<g><path style="opacity:1" fill="#232122" d="M 22.5,16.5 C 22.631,17.2389 22.4643,17.9056 22,18.5C 16.3333,13.1667 10.6667,13.1667 5,18.5C 4.60123,18.2716 4.43456,17.9382 4.5,17.5C 4.55688,16.391 4.89022,15.391 5.5,14.5C 6.16145,13.2825 6.82811,11.9492 7.5,10.5C 10.1974,12.0454 12.1974,11.3787 13.5,8.5C 14.8026,11.3787 16.8026,12.0454 19.5,10.5C 20.2063,12.704 21.2063,14.704 22.5,16.5 Z"/></g>
<g><path style="opacity:1" fill="#eae9e9" d="M 22.5,16.5 C 23.0967,16.7352 23.4301,17.2352 23.5,18C 22.9444,19.0111 22.2778,19.8444 21.5,20.5C 16.8333,20.5 12.1667,20.5 7.5,20.5C 6.2825,19.8386 4.94916,19.1719 3.5,18.5C 3.62358,17.8933 3.95691,17.56 4.5,17.5C 4.43456,17.9382 4.60123,18.2716 5,18.5C 10.6667,13.1667 16.3333,13.1667 22,18.5C 22.4643,17.9056 22.631,17.2389 22.5,16.5 Z"/></g>
</svg>
