<?xml version="1.0" standalone="no"?>
<!DOCTYPE svg PUBLIC "-//W3C//DTD SVG 20010904//EN"
 "http://www.w3.org/TR/2001/REC-SVG-20010904/DTD/svg10.dtd">
<svg version="1.0" xmlns="http://www.w3.org/2000/svg"
 width="24.000000pt" height="21.000000pt" viewBox="0 0 24.000000 21.000000"
 preserveAspectRatio="xMidYMid meet">

<g transform="translate(0.000000,21.000000) scale(0.100000,-0.100000)"
fill="#000000" stroke="none">
<path d="M54 200 c-21 -8 -54 -46 -54 -62 0 -4 11 4 25 17 24 25 75 35 75 15
0 -5 -6 -10 -14 -10 -7 0 -19 -6 -25 -14 -9 -11 -5 -12 29 -3 32 9 46 8 75 -6
34 -16 35 -16 35 2 0 10 -9 29 -21 42 -11 13 -18 18 -14 12 8 -17 -5 -16 -29
2 -22 17 -50 18 -82 5z"/>
<path d="M103 114 c-7 -19 11 -39 26 -30 16 10 13 33 -4 40 -9 3 -18 -1 -22
-10z"/>
<path d="M44 63 c4 -15 14 -35 23 -43 9 -8 13 -9 9 -3 -10 17 4 16 28 -2 33
-25 75 -19 107 16 16 17 29 36 29 41 0 6 -8 1 -17 -11 -20 -23 -83 -41 -83
-22 0 6 6 11 14 11 7 0 20 7 27 17 13 15 12 15 -8 5 -30 -16 -68 -15 -105 4
l-31 16 7 -29z"/>
</g>
</svg>
