<?xml version="1.0" standalone="no"?>
<!DOCTYPE svg PUBLIC "-//W3C//DTD SVG 20010904//EN"
 "http://www.w3.org/TR/2001/REC-SVG-20010904/DTD/svg10.dtd">
<svg version="1.0" xmlns="http://www.w3.org/2000/svg"
 width="28.000000pt" height="21.000000pt" viewBox="0 0 28.000000 21.000000"
 preserveAspectRatio="xMidYMid meet">

<g transform="translate(0.000000,21.000000) scale(0.100000,-0.100000)"
fill="#000000" stroke="none">
<path d="M101 190 c-42 -10 -59 -27 -76 -76 -16 -48 -8 -67 12 -25 10 20 29
35 58 47 54 20 102 7 140 -38 32 -38 39 -32 23 17 -21 62 -82 91 -157 75z"/>
<path d="M124 103 c-10 -15 -15 -16 -33 -5 -19 11 -21 10 -21 -12 0 -14 -4
-28 -10 -31 -5 -3 -10 -13 -10 -21 0 -11 7 -10 37 6 47 25 59 25 106 0 30 -16
37 -17 37 -6 0 8 -4 18 -10 21 -5 3 -10 17 -10 31 0 22 -2 23 -21 12 -17 -11
-22 -10 -33 5 -7 9 -15 17 -17 17 -2 0 -9 -8 -15 -17z"/>
</g>
</svg>
