<?xml version="1.0" standalone="no"?>
<!DOCTYPE svg PUBLIC "-//W3C//DTD SVG 20010904//EN"
 "http://www.w3.org/TR/2001/REC-SVG-20010904/DTD/svg10.dtd">
<svg version="1.0" xmlns="http://www.w3.org/2000/svg"
 width="16.000000pt" height="21.000000pt" viewBox="0 0 16.000000 21.000000"
 preserveAspectRatio="xMidYMid meet">

<g transform="translate(0.000000,21.000000) scale(0.100000,-0.100000)"
fill="#000000" stroke="none">
<path d="M20 195 c-18 -21 -5 -60 25 -73 26 -12 34 -32 13 -32 -7 -1 2 -9 21
-18 34 -17 53 -42 32 -42 -6 0 -11 5 -11 10 0 6 -12 10 -27 10 -37 0 -57 14
-50 34 4 9 2 16 -4 16 -16 0 -22 -30 -11 -56 9 -19 19 -24 47 -24 22 0 34 -4
30 -10 -3 -5 3 -10 14 -10 25 0 61 45 61 77 0 46 -48 108 -68 88 -3 -3 0 -5 6
-5 7 0 12 -7 12 -15 0 -20 -20 -18 -47 4 -25 21 -30 47 -10 54 7 4 6 6 -4 6
-9 1 -22 -6 -29 -14z"/>
</g>
</svg>
