<?xml version="1.0" encoding="UTF-8"?>
<svg xmlns="http://www.w3.org/2000/svg" width="30.000000pt" height="18.000000pt" viewBox="0 0 30.000000 18.000000" preserveAspectRatio="xMidYMid meet">
<rect width="30" height="18" fill="#B0B0B0"/>
<rect width="30" height="12" fill="#D0D0D0"/>
<rect width="30" height="6" fill="#B0B0B0"/>
<g transform="translate(0.000000,18.000000) scale(0.100000,-0.100000)" fill="#000000" stroke="none">
<path d="M110 155 c-9 -11 -10 -19 -2 -27 14 -14 33 -1 25 19 -4 11 -2 14 8
11 15 -5 16 -37 3 -78 -6 -21 -2 -19 26 14 27 30 32 41 23 54 -14 23 -66 27
-83 7z"/>
<path d="M130 35 c-10 -12 -9 -16 5 -21 23 -9 40 10 22 25 -11 9 -17 8 -27 -4z"/>
</g></svg>
