<?xml version="1.0" encoding="UTF-8"?>
<!DOCTYPE svg PUBLIC "-//W3C//DTD SVG 1.1//EN" "http://www.w3.org/Graphics/SVG/1.1/DTD/svg11.dtd">
<svg xmlns="http://www.w3.org/2000/svg" version="1.1" width="24px" height="22px" style="shape-rendering:geometricPrecision; text-rendering:geometricPrecision; image-rendering:optimizeQuality; fill-rule:evenodd; clip-rule:evenodd" xmlns:xlink="http://www.w3.org/1999/xlink">
<g><path style="opacity:1" fill="#f7f8f8" d="M -0.5,-0.5 C 7.5,-0.5 15.5,-0.5 23.5,-0.5C 23.5,6.83333 23.5,14.1667 23.5,21.5C 15.5,21.5 7.5,21.5 -0.5,21.5C -0.5,14.1667 -0.5,6.83333 -0.5,-0.5 Z"/></g>
<g><path style="opacity:1" fill="#8aa3ad" d="M 15.5,5.5 C 15.3398,7.19919 15.5065,8.86586 16,10.5C 16.6543,9.30441 17.1543,9.30441 17.5,10.5C 16.4513,12.2156 15.118,13.5489 13.5,14.5C 12.1266,14.6567 10.7932,14.49 9.5,14C 15.9892,12.4474 15.9892,11.4474 9.5,11C 8.12353,8.45978 8.79019,6.45978 11.5,5C 12.8193,4.80503 14.1526,4.97169 15.5,5.5 Z"/></g>
<g><path style="opacity:1" fill="#30363a" d="M 15.5,17.5 C 15.7148,15.8212 15.0481,14.8212 13.5,14.5C 15.118,13.5489 16.4513,12.2156 17.5,10.5C 17.1543,9.30441 16.6543,9.30441 16,10.5C 15.5065,8.86586 15.3398,7.19919 15.5,5.5C 16.1174,5.61071 16.6174,5.94404 17,6.5C 16.9227,5.26236 17.0894,4.26236 17.5,3.5C 18.7199,3.88691 19.3865,4.72024 19.5,6C 18.9665,10.2728 17.6332,14.1061 15.5,17.5 Z"/></g>
<g><path style="opacity:1" fill="#36434a" d="M 15.5,5.5 C 14.1526,4.97169 12.8193,4.80503 11.5,5C 8.79019,6.45978 8.12353,8.45978 9.5,11C 15.9892,11.4474 15.9892,12.4474 9.5,14C 10.7932,14.49 12.1266,14.6567 13.5,14.5C 10.8501,15.4571 10.1834,17.1238 11.5,19.5C 10.4168,19.4606 9.41683,19.1272 8.5,18.5C 6.12828,14.082 5.29494,9.41533 6,4.5C 8.33333,3.16667 10.6667,1.83333 13,0.5C 16.0114,2.0004 15.5114,2.83374 11.5,3C 13.3197,3.20041 14.653,4.03374 15.5,5.5 Z"/></g>
<g><path style="opacity:1" fill="#8599a4" d="M 13.5,14.5 C 15.0481,14.8212 15.7148,15.8212 15.5,17.5C 14.625,19.8061 13.2916,20.4728 11.5,19.5C 10.1834,17.1238 10.8501,15.4571 13.5,14.5 Z"/></g>
</svg>
