<?xml version="1.0" standalone="no"?>
<!DOCTYPE svg PUBLIC "-//W3C//DTD SVG 20010904//EN"
 "http://www.w3.org/TR/2001/REC-SVG-20010904/DTD/svg10.dtd">
<svg version="1.0" xmlns="http://www.w3.org/2000/svg"
 width="23.000000pt" height="21.000000pt" viewBox="0 0 23.000000 21.000000"
 preserveAspectRatio="xMidYMid meet">

<g transform="translate(0.000000,21.000000) scale(0.100000,-0.100000)"
fill="#000000" stroke="none">
<path d="M98 180 c-51 -27 -98 -73 -98 -98 0 -5 7 -12 15 -16 8 -3 15 -15 15
-27 0 -18 10 -12 63 37 34 32 77 66 95 77 18 11 31 21 29 23 -8 8 -73 -25
-119 -60 -26 -20 -49 -36 -52 -36 -26 0 42 77 98 111 47 29 18 22 -46 -11z"/>
<path d="M168 92 c-64 -38 -100 -70 -92 -83 4 -7 21 3 43 24 20 19 54 46 76
61 53 35 33 33 -27 -2z"/>
</g>
</svg>
